HIERARCHY
ROOT hip
{
  OFFSET 0 0 0
  CHANNELS 6 Xposition Yposition Zposition Zrotation Yrotation Xrotation
  JOINT abdomen
  {
    OFFSET 0 20.6881 -0.73152
    CHANNELS 3 Zrotation Xrotation Yrotation
    JOINT chest
    {
      OFFSET 0 11.7043 -0.48768
      CHANNELS 3 Zrotation Xrotation Yrotation
      JOINT neck
      {
        OFFSET 0 22.1894 -2.19456
        CHANNELS 3 Zrotation Xrotation Yrotation
        JOINT head
        {
          OFFSET -0.24384 7.07133 1.2192
          CHANNELS 3 Zrotation Xrotation Yrotation
          JOINT leftEye
          {
            OFFSET 4.14528 8.04674 8.04672
            CHANNELS 3 Zrotation Xrotation Yrotation
            End Site
            {
              OFFSET 1 0 0
            }
          }
          JOINT rightEye
          {
            OFFSET -3.6576 8.04674 8.04672
            CHANNELS 3 Zrotation Xrotation Yrotation
            End Site
            {
              OFFSET 1 0 0
            }
          }
        }
      }
      JOINT rCollar
      {
        OFFSET -2.68224 19.2634 -4.8768
        CHANNELS 3 Zrotation Xrotation Yrotation
        JOINT rShldr
        {
          OFFSET -8.77824 -1.95073 1.46304
          CHANNELS 3 Zrotation Xrotation Yrotation
          JOINT rForeArm
          {
            OFFSET -28.1742 -1.7115 0.48768
            CHANNELS 3 Zrotation Xrotation Yrotation
            JOINT rHand
            {
              OFFSET -22.5879 0.773209 7.07136
              CHANNELS 3 Zrotation Xrotation Yrotation
              JOINT rThumb1
              {
                OFFSET -1.2192 -0.487915 3.41376
                CHANNELS 3 Zrotation Xrotation Yrotation
                JOINT rThumb2
                {
                  OFFSET -3.37035 -0.52449 3.41376
                  CHANNELS 3 Zrotation Xrotation Yrotation
                  End Site
                  {
                    OFFSET -1.78271 -1.18214 1.43049
                  }
                }
              }
              JOINT rIndex1
              {
                OFFSET -7.75947 0.938293 5.60832
                CHANNELS 3 Zrotation Xrotation Yrotation
                JOINT rIndex2
                {
                  OFFSET -2.54057 -0.884171 1.56538
                  CHANNELS 3 Zrotation Xrotation Yrotation
                  End Site
                  {
                    OFFSET -1.62519 -0.234802 1.16502
                  }
                }
              }
              JOINT rMid1
              {
                OFFSET -8.24714 1.18213 3.41376
                CHANNELS 3 Zrotation Xrotation Yrotation
                JOINT rMid2
                {
                  OFFSET -3.10165 -0.590103 1.0647
                  CHANNELS 3 Zrotation Xrotation Yrotation
                  End Site
                  {
                    OFFSET -2.48547 -0.328903 0.83742
                  }
                }
              }
              JOINT rRing1
              {
                OFFSET -8.82822 0.546677 1.51678
                CHANNELS 3 Zrotation Xrotation Yrotation
                JOINT rRing2
                {
                  OFFSET -2.60934 -0.819778 -0.0198488
                  CHANNELS 3 Zrotation Xrotation Yrotation
                  End Site
                  {
                    OFFSET -2.33842 -0.294052 0.168128
                  }
                }
              }
              JOINT rPinky1
              {
                OFFSET -8.27202 -0.0477905 -0.4584
                CHANNELS 3 Zrotation Xrotation Yrotation
                JOINT rPinky2
                {
                  OFFSET -1.82734 -0.647385 -0.700984
                  CHANNELS 3 Zrotation Xrotation Yrotation
                  End Site
                  {
                    OFFSET -1.69225 -0.51767 -0.607171
                  }
                }
              }
            }
          }
        }
      }
      JOINT lCollar
      {
        OFFSET 2.68224 19.2634 -4.8768
        CHANNELS 3 Zrotation Xrotation Yrotation
        JOINT lShldr
        {
          OFFSET 8.77824 -1.95073 1.46304
          CHANNELS 3 Zrotation Xrotation Yrotation
          JOINT lForeArm
          {
            OFFSET 28.1742 -1.7115 0.48768
            CHANNELS 3 Zrotation Xrotation Yrotation
            JOINT lHand
            {
              OFFSET 22.5879 0.773209 7.07136
              CHANNELS 3 Zrotation Xrotation Yrotation
              JOINT lThumb1
              {
                OFFSET 1.2192 -0.487915 3.41376
                CHANNELS 3 Zrotation Xrotation Yrotation
                JOINT lThumb2
                {
                  OFFSET 3.37035 -0.52449 3.41376
                  CHANNELS 3 Zrotation Xrotation Yrotation
                  End Site
                  {
                    OFFSET 1.78271 -1.18214 1.43049
                  }
                }
              }
              JOINT lIndex1
              {
                OFFSET 7.75947 0.938293 5.60832
                CHANNELS 3 Zrotation Xrotation Yrotation
                JOINT lIndex2
                {
                  OFFSET 2.54057 -0.884171 1.56538
                  CHANNELS 3 Zrotation Xrotation Yrotation
                  End Site
                  {
                    OFFSET 1.62519 -0.234802 1.16502
                  }
                }
              }
              JOINT lMid1
              {
                OFFSET 8.24714 1.18213 3.41376
                CHANNELS 3 Zrotation Xrotation Yrotation
                JOINT lMid2
                {
                  OFFSET 3.10165 -0.590103 1.0647
                  CHANNELS 3 Zrotation Xrotation Yrotation
                  End Site
                  {
                    OFFSET 2.48547 -0.328903 0.83742
                  }
                }
              }
              JOINT lRing1
              {
                OFFSET 8.82822 0.546677 1.51678
                CHANNELS 3 Zrotation Xrotation Yrotation
                JOINT lRing2
                {
                  OFFSET 2.60934 -0.819778 -0.0198488
                  CHANNELS 3 Zrotation Xrotation Yrotation
                  End Site
                  {
                    OFFSET 2.33842 -0.294052 0.168128
                  }
                }
              }
              JOINT lPinky1
              {
                OFFSET 8.27202 -0.0477905 -0.4584
                CHANNELS 3 Zrotation Xrotation Yrotation
                JOINT lPinky2
                {
                  OFFSET 1.82734 -0.647385 -0.700984
                  CHANNELS 3 Zrotation Xrotation Yrotation
                  End Site
                  {
                    OFFSET 1.69225 -0.51767 -0.607171
                  }
                }
              }
            }
          }
        }
      }
    }
  }
  JOINT rButtock
  {
    OFFSET -8.77824 4.35084 1.2192
    CHANNELS 3 Zrotation Xrotation Yrotation
    JOINT rThigh
    {
      OFFSET 0 -1.70687 -2.19456
      CHANNELS 3 Zrotation Xrotation Yrotation
      JOINT rShin
      {
        OFFSET 0 -36.8199 0.73152
        CHANNELS 3 Zrotation Xrotation Yrotation
        JOINT rFoot
        {
          OFFSET 0.73152 -45.1104 -5.12064
          CHANNELS 3 Zrotation Xrotation Yrotation
          End Site
          {
            OFFSET -1.1221 -3.69964 12.103
          }
        }
      }
    }
  }
  JOINT lButtock
  {
    OFFSET 8.77824 4.35084 1.2192
    CHANNELS 3 Zrotation Xrotation Yrotation
    JOINT lThigh
    {
      OFFSET 0 -1.70687 -2.19456
      CHANNELS 3 Zrotation Xrotation Yrotation
      JOINT lShin
      {
        OFFSET 0 -36.8199 0.73152
        CHANNELS 3 Zrotation Xrotation Yrotation
        JOINT lFoot
        {
          OFFSET -0.73152 -45.1104 -5.12064
          CHANNELS 3 Zrotation Xrotation Yrotation
          End Site
          {
            OFFSET 1.1221 -3.69964 12.103
          }
        }
      }
    }
  }
}
MOTION
Frames:	6
Frame Time:	0.00833333
263.319 84.8429 -35.5424 0.0 0.0 0.0 -0.257806 -0.00149939 -0.00737508 -0.0711635 -0.00234959 -0.0123289 3.84809e-15 0.0 2.48481e-17 1.14798e-14 3.18055e-15 5.90142e-17 -0.0 0.0 0.0 -0.0 0.0 0.0 1.93686e-15 -4.65902e-18 9.93923e-17 4.25313e-14 -4.22417e-16 1.59028e-15 6.90479e-13 -2.11109e-13 9.54166e-15 7.89228e-12 1.8077e-13 3.49861e-14 1.86155e-11 -6.31044e-14 8.90555e-14 3.21486e-11 -1.04958e-13 1.57437e-13 1.86206e-11 -6.24184e-14 9.22361e-14 7.73091 5.47488 0.417314 1.86167e-11 -6.30147e-14 9.54166e-14 2.90554 0.965183 0.102902 1.86291e-11 -6.2319e-14 9.14409e-14 10.2786 0.731801 0.0259123 1.86168e-11 -6.2816e-14 9.22361e-14 2.22167 -0.733487 -0.20892 1.93956e-15 -4.07664e-18 -9.93923e-17 3.74043e-14 -4.16205e-16 -7.95139e-16 6.8536e-13 2.03953e-13 0.0 7.89688e-12 -2.21819e-13 4.45278e-14 1.86179e-11 -3.25082e-14 8.26944e-14 3.2155e-11 -5.40694e-14 1.59823e-13 1.86118e-11 -3.06128e-14 9.22361e-14 -7.73091 5.47488 -0.417314 1.86156e-11 -3.16068e-14 8.90555e-14 -2.90554 0.965183 -0.102902 1.86111e-11 -3.25013e-14 9.06458e-14 -10.2786 0.731801 -0.0259123 1.86231e-11 -2.94201e-14 8.90555e-14 -2.22167 -0.733487 0.20892 -2.03217e-16 0.0 -3.88251e-19 0.288541 -2.74965 -0.0315105 -0.00677211 -0.571698 -0.0593194 -0.48346 3.32101 0.12237 2.03217e-16 0.0 3.88251e-19 -0.681395 -3.75931 0.0561644 0.00387433 1.25717 0.032071 0.487153 2.50184 -0.106257
257.423 83.0095 -41.1333 -40.8624 -87.2199 42.9238 -0.253062 -0.14879 -0.404471 0.305037 1.80236 -0.163611 -2.42506 3.95884 -2.8871 6.38685 -9.40165 -3.97344 -0.0 0.0 0.0 -0.0 0.0 0.0 6.9847e-15 -7.54035e-12 -1.36432e-14 22.2684 5.48251 1.96616 -3.48082 -1.45865 5.56295 0.000278112 0.370183 0.0520219 4.02178e-11 1.47347e-10 8.54759e-10 7.20919e-11 2.55354e-10 1.47728e-09 4.02222e-11 1.47348e-10 8.5476e-10 7.73091 5.47488 0.417314 4.02191e-11 1.47348e-10 8.54764e-10 2.90554 0.965183 0.102902 4.02291e-11 1.47349e-10 8.54762e-10 10.2786 0.731801 0.0259123 4.02177e-11 1.47349e-10 8.54765e-10 2.22167 -0.733487 -0.20892 6.9804e-15 -7.54483e-12 -1.38726e-14 -22.742 6.70286 -2.04764 3.72864 -1.60693 -5.91492 -0.0124099 -2.47147 0.346176 1.47764e-10 1.01999e-10 -8.19732e-10 2.58573e-10 1.75986e-10 -1.41602e-09 1.47758e-10 1.02002e-10 -8.19726e-10 -7.73091 5.47488 -0.417314 1.47762e-10 1.02e-10 -8.19729e-10 -2.90554 0.965183 -0.102902 1.47757e-10 1.02e-10 -8.19727e-10 -10.2786 0.731801 -0.0259123 1.47768e-10 1.02002e-10 -8.19728e-10 -2.22167 -0.733487 0.20892 -2.03217e-16 0.0 -3.88251e-19 0.960696 -6.77616 -0.596385 0.0332498 10.0468 0.13433 -0.888219 -4.4297 -2.67173 2.03217e-16 0.0 3.88251e-19 -0.534163 -6.66266 1.00555 -0.0201582 9.64501 -0.119764 0.964812 -3.15765 3.73823
257.426 83.0083 -41.1326 -40.8065 -87.2248 42.8811 -0.250047 -0.304098 -0.82428 0.713054 3.71132 -0.323997 -4.54926 8.11392 -5.9849 11.6476 -19.1999 -8.54046 -0.0 0.0 0.0 -0.0 0.0 0.0 1.27713e-14 -1.61722e-11 -2.9358e-14 45.3928 11.2571 4.10664 -6.85491 -2.9553 11.4565 -0.000158474 0.759902 0.106797 8.63568e-11 3.1098e-10 1.71662e-09 1.54477e-10 5.38927e-10 2.96678e-09 8.63607e-11 3.10982e-10 1.71662e-09 7.73091 5.47488 0.417314 8.63585e-11 3.10982e-10 1.71663e-09 2.90554 0.965183 0.102902 8.63658e-11 3.10982e-10 1.71663e-09 10.2786 0.731801 0.0259123 8.63554e-11 3.10983e-10 1.71663e-09 2.22167 -0.733487 -0.20892 1.27597e-14 -1.61818e-11 -2.9622e-14 -46.2488 13.7606 -4.30884 7.31231 -3.249 -12.1837 0.00706286 -5.08463 0.714387 2.95254e-10 1.87097e-10 -1.65098e-09 5.16762e-10 3.22703e-10 -2.85188e-09 2.95247e-10 1.87101e-10 -1.65098e-09 -7.73091 5.47488 -0.417314 2.95252e-10 1.871e-10 -1.65098e-09 -2.90554 0.965183 -0.102902 2.95245e-10 1.871e-10 -1.65098e-09 -10.2786 0.731801 -0.0259123 2.95256e-10 1.87101e-10 -1.65098e-09 -2.22167 -0.733487 0.20892 -2.03217e-16 0.0 -3.88251e-19 1.58346 -11.0316 -1.20723 -0.0071996 21.2716 0.359254 -2.15369 -12.5715 -5.74681 2.03217e-16 0.0 3.88251e-19 -0.272366 -9.7285 2.02439 0.00508649 18.512 -0.291899 2.30182 -9.06975 7.88953
257.422 83.0097 -41.1301 -40.5955 -87.2235 42.6549 -0.249699 -0.443285 -1.19869 1.08614 5.41161 -0.468018 -6.06163 11.7546 -8.82718 14.8555 -27.6269 -13.2994 -0.0 0.0 0.0 -0.0 0.0 0.0 1.70804e-14 -2.26211e-11 -4.11282e-14 65.6382 16.3684 6.12043 -9.60414 -4.21123 16.7299 -0.00118264 1.11054 0.156092 8.34222e-11 4.42168e-10 2.5641e-09 1.51979e-10 7.66272e-10 4.43153e-09 8.34255e-11 4.42169e-10 2.5641e-09 7.73091 5.47488 0.417314 8.34241e-11 4.4217e-10 2.5641e-09 2.90554 0.965183 0.102902 8.34291e-11 4.4217e-10 2.5641e-09 10.2786 0.731801 0.0259123 8.34196e-11 4.42172e-10 2.56411e-09 2.22167 -0.733487 -0.20892 1.70621e-14 -2.26345e-11 -4.1419e-14 -66.7136 20.0025 -6.4942 10.2055 -4.61566 -17.7974 0.0530028 -7.41334 1.04631 4.06058e-10 3.06061e-10 -2.45936e-09 7.11408e-10 5.28067e-10 -4.24838e-09 4.0605e-10 3.06066e-10 -2.45936e-09 -7.73091 5.47488 -0.417314 4.06056e-10 3.06064e-10 -2.45937e-09 -2.90554 0.965183 -0.102902 4.06048e-10 3.06064e-10 -2.45936e-09 -10.2786 0.731801 -0.0259123 4.06059e-10 3.06065e-10 -2.45936e-09 -2.22167 -0.733487 0.20892 -2.03217e-16 0.0 -3.88251e-19 2.05942 -14.8235 -1.77273 -0.130775 31.2823 0.60313 -4.06809 -19.7313 -8.75316 2.03217e-16 0.0 3.88251e-19 0.0552827 -12.4564 2.95377 0.0780237 26.42 -0.467128 4.23891 -14.2042 11.7749
257.42 83.0105 -41.1305 -40.6637 -87.2254 42.7132 -0.251722 -0.542252 -1.45959 1.35158 6.59035 -0.569374 -6.90867 14.2257 -10.872 16.1164 -33.1732 -17.2199 -0.0 0.0 0.0 -0.0 0.0 0.0 1.76955e-14 -2.36123e-11 -4.30369e-14 79.5252 19.8967 7.60599 -11.3785 -5.02248 20.4135 -0.00228066 1.3635 0.191664 -4.21964e-11 4.92242e-10 3.3756e-09 -6.27265e-11 8.53047e-10 5.83445e-09 -4.21936e-11 4.92244e-10 3.3756e-09 7.73091 5.47488 0.417314 -4.21947e-11 4.92244e-10 3.37561e-09 2.90554 0.965183 0.102902 -4.2191e-11 4.92245e-10 3.37561e-09 10.2786 0.731801 0.0259123 -4.21998e-11 4.92247e-10 3.37561e-09 2.22167 -0.733487 -0.20892 1.7672e-14 -2.36266e-11 -4.33351e-14 -80.6691 24.3058 -8.15575 12.0585 -5.48936 -21.723 0.101109 -9.03198 1.28009 4.25148e-10 5.09687e-10 -3.21056e-09 7.47195e-10 8.8005e-10 -5.5465e-09 4.2514e-10 5.09692e-10 -3.21056e-09 -7.73091 5.47488 -0.417314 4.25147e-10 5.0969e-10 -3.21057e-09 -2.90554 0.965183 -0.102902 4.25137e-10 5.09691e-10 -3.21056e-09 -10.2786 0.731801 -0.0259123 4.25148e-10 5.09691e-10 -3.21056e-09 -2.22167 -0.733487 0.20892 -2.03217e-16 0.0 -3.88251e-19 2.34415 -17.462 -2.1834 -0.282163 38.2593 0.816986 -5.89654 -24.6318 -11.0878 2.03217e-16 0.0 3.88251e-19 0.337384 -14.3509 3.61713 0.162935 31.931 -0.6091 6.02394 -17.6627 14.6389
257.418 83.0113 -41.1325 -40.5874 -87.2266 42.6279 -0.255526 -0.582681 -1.56123 1.45762 7.03887 -0.609925 -7.21793 15.1491 -11.6897 16.4054 -35.1541 -18.9206 -0.0 0.0 0.0 -0.0 0.0 0.0 -2.21179e-14 -1.51839e-11 -4.06786e-14 84.9128 21.2681 8.19556 -12.0385 -5.32023 21.8495 -0.00285152 1.47677 0.207595 -3.8983e-10 4.04116e-10 4.17163e-09 -6.61335e-10 7.00311e-10 7.21121e-09 -3.89827e-10 4.04118e-10 4.17163e-09 7.73091 5.47488 0.417314 -3.89828e-10 4.04119e-10 4.17163e-09 2.90554 0.965183 0.102902 -3.89825e-10 4.0412e-10 4.17164e-09 10.2786 0.731801 0.0259123 -3.89833e-10 4.04121e-10 4.17164e-09 2.22167 -0.733487 -0.20892 -2.21423e-14 -1.51945e-11 -4.09524e-14 -86.0617 25.9731 -8.83117 12.7451 -5.80773 -23.2553 0.123377 -9.65725 1.37123 2.79306e-10 8.76809e-10 -3.90313e-09 4.97448e-10 1.51513e-09 -6.74403e-09 2.79298e-10 8.76814e-10 -3.90313e-09 -7.73091 5.47488 -0.417314 2.79306e-10 8.76812e-10 -3.90313e-09 -2.90554 0.965183 -0.102902 2.79296e-10 8.76812e-10 -3.90313e-09 -10.2786 0.731801 -0.0259123 2.79307e-10 8.76813e-10 -3.90313e-09 -2.22167 -0.733487 0.20892 -2.03217e-16 0.0 -3.88251e-19 2.44281 -18.4887 -2.35009 -0.360671 40.9904 0.91571 -6.73617 -26.525 -12.0743 2.03217e-16 0.0 3.88251e-19 0.458948 -15.0856 3.88212 0.205215 34.0867 -0.670577 6.82318 -18.976 15.8048
